<?xml version="1.0" encoding="utf-8"?>
<!-- Generator: Adobe Illustrator 19.0.0, SVG Export Plug-In . SVG Version: 6.00 Build 0)  -->
<svg version="1.1" id="Layer_1" xmlns="http://www.w3.org/2000/svg" xmlns:xlink="http://www.w3.org/1999/xlink" x="0px" y="0px"
	 viewBox="0 0 335 107" style="enable-background:new 0 0 335 107;" xml:space="preserve">
<style type="text/css">
	.st0{fill:#0E4B87;}
</style>
<g>
	<g id="XMLID_325_">
		<path id="XMLID_370_" class="st0" d="M281.6,64.5c1.7,0,3.3-0.4,4.9-1.1c1.5-0.7,2.8-2,4-3.9c0,1.3,0.4,2.4,1.1,3.4
			c0.7,1,2.1,1.5,4.2,1.5c1.3,0,2.3-0.2,3.1-0.6c0.8-0.4,1.7-0.9,2.4-1.5l-0.6-1c-0.4,0.3-0.8,0.6-1.1,0.8c-0.4,0.2-0.8,0.4-1.3,0.4
			c-0.6,0-1.1-0.2-1.3-0.6c-0.2-0.5-0.3-1.1-0.3-2V44.1c0-1.9-0.2-3.5-0.5-4.8c-0.3-1.3-0.9-2.4-1.9-3.3c-0.8-0.8-1.8-1.4-3-1.7
			s-2.7-0.5-4.3-0.5c-1.7,0-3.3,0.2-4.8,0.6c-1.4,0.5-2.6,0.9-3.5,1.5c-0.8,0.6-1.5,1.2-2.1,1.8c-0.5,0.7-0.8,1.5-0.8,2.5
			c0,0,0.2,2,2.4,1.3c2.1-0.7-0.2-3.9,2.1-5.3c-0.8,0.5,1.1-0.7,2.2-1c1.1-0.3,1.9-0.4,2.8-0.4c1.1,0,1.9,0.2,2.7,0.5
			s1.4,0.9,1.7,1.7c0.5,0.8,0.7,1.9,0.7,3.3v3.9c0,0.1,0,0.2,0,0.2v2.1V58c-0.8,1.4-1.7,2.3-2.7,2.8c-1,0.5-1.9,0.8-2.9,0.8
			c-1.2,0-2.2-0.4-3-1.2c-0.8-0.8-1.2-2.1-1.2-3.8c0-1.7,0.4-3.1,1.2-4.1c0.8-1,1.7-1.7,2.9-2.4s2.2-1.1,3.3-1.6
			c0.3-0.2,0.6-0.3,0.9-0.5v-1.4c-0.7,0.5-1.6,0.9-2.6,1.3c-1.2,0.5-2.5,0.9-3.9,1.4c-1.4,0.5-2.7,1.1-3.8,1.7
			c-1.2,0.7-2.2,1.5-3,2.6s-1.1,2.4-1.1,4c0,2,0.5,3.6,1.7,4.9C277.3,63.9,279.1,64.5,281.6,64.5z"/>
		<path id="XMLID_369_" class="st0" d="M253.6,64.5c1.7,0,3.3-0.4,4.9-1.1c1.5-0.7,2.8-2,4-3.9c0.1,1.3,0.4,2.4,1.1,3.4
			c0.7,1,2.1,1.5,4.2,1.5c1.3,0,2.3-0.2,3.1-0.6c0.8-0.4,1.6-0.9,2.4-1.5l-0.6-1c-0.4,0.3-0.8,0.6-1.1,0.8c-0.4,0.2-0.8,0.4-1.3,0.4
			c-0.6,0-1.1-0.2-1.3-0.6c-0.2-0.5-0.4-1.1-0.4-2V44.1c0-1.9-0.2-3.5-0.5-4.8c-0.3-1.3-0.9-2.4-1.9-3.3c-0.8-0.8-1.8-1.4-3-1.7
			s-2.7-0.5-4.3-0.5c-1.7,0-3.3,0.2-4.8,0.6c-1.4,0.5-2.6,0.9-3.5,1.5c-0.8,0.6-1.5,1.2-2.1,1.8c-0.5,0.7-0.8,1.5-0.8,2.5
			c0,0,0.2,2,2.4,1.3c2.1-0.7-0.2-3.9,2.1-5.3c-0.8,0.5,1.1-0.7,2.2-1c1.1-0.3,1.9-0.4,2.8-0.4c1.1,0,1.9,0.2,2.7,0.5
			c0.8,0.4,1.4,0.9,1.7,1.7c0.5,0.8,0.7,1.9,0.7,3.3v3.9c0,0.1,0,0.2,0,0.2v2.1V58c-0.8,1.4-1.7,2.3-2.7,2.8c-1,0.5-1.9,0.8-3,0.8
			c-1.2,0-2.2-0.4-3-1.2c-0.8-0.8-1.2-2.1-1.2-3.8c0-1.7,0.4-3.1,1.2-4.1c0.8-1,1.7-1.7,2.9-2.4c1.1-0.6,2.2-1.1,3.3-1.6
			c0.3-0.2,0.6-0.3,0.9-0.5v-1.4c-0.7,0.5-1.6,0.9-2.6,1.3c-1.2,0.5-2.5,0.9-3.9,1.4s-2.7,1.1-3.9,1.7c-1.2,0.7-2.2,1.5-3,2.6
			s-1.1,2.4-1.1,4c0,2,0.5,3.6,1.7,4.9C249.3,63.9,251.1,64.5,253.6,64.5z"/>
		<path id="XMLID_368_" class="st0" d="M118.3,64.5c1.7,0,3.3-0.4,4.9-1.1s2.8-2,4-3.9c0,1.3,0.4,2.4,1.1,3.4s2.1,1.5,4.2,1.5
			c1.3,0,2.3-0.2,3.1-0.6c0.8-0.4,1.6-0.9,2.4-1.5l-0.5-1c-0.4,0.3-0.8,0.6-1.1,0.8s-0.8,0.4-1.3,0.4c-0.6,0-1.1-0.2-1.3-0.6
			c-0.2-0.5-0.4-1.1-0.4-2V44.1c0-1.9-0.2-3.5-0.5-4.8c-0.3-1.3-0.9-2.4-1.9-3.3c-0.8-0.8-1.8-1.4-3-1.7c-1.2-0.4-2.7-0.5-4.3-0.5
			c-1.7,0-3.3,0.2-4.8,0.6c-1.4,0.5-2.6,0.9-3.5,1.5c-0.8,0.6-1.5,1.2-2.1,1.8c-0.5,0.7-0.8,1.5-0.8,2.5c0,0,0.2,2,2.4,1.3
			c2.1-0.7-0.2-3.9,2.1-5.3c-0.8,0.5,1.1-0.7,2.2-1c1.1-0.3,1.9-0.4,2.8-0.4c1.1,0,1.9,0.2,2.7,0.5s1.4,0.9,1.7,1.7
			c0.5,0.8,0.7,1.9,0.7,3.3v3.9c0,0.1,0,0.2,0,0.2v2.1V58c-0.8,1.4-1.7,2.3-2.7,2.8c-1,0.5-1.9,0.8-2.9,0.8c-1.2,0-2.2-0.4-3-1.2
			c-0.8-0.8-1.2-2.1-1.2-3.8c0-1.7,0.4-3.1,1.2-4.1c0.8-1,1.7-1.7,2.9-2.4s2.2-1.1,3.3-1.6c0.3-0.2,0.6-0.3,0.9-0.5v-1.4
			c-0.8,0.5-1.6,0.9-2.6,1.3c-1.2,0.5-2.5,0.9-3.8,1.4c-1.4,0.5-2.7,1.1-3.9,1.7c-1.2,0.7-2.2,1.5-3,2.6c-0.8,1.1-1.1,2.4-1.1,4
			c0,2,0.5,3.6,1.7,4.9C113.9,63.9,115.8,64.5,118.3,64.5z"/>
		<path id="XMLID_367_" class="st0" d="M38.2,64.5c1.7,0,3.3-0.4,4.9-1.1c1.5-0.7,2.8-2,4-3.9c0.1,1.3,0.4,2.4,1.1,3.4
			s2.1,1.5,4.2,1.5c1.3,0,2.3-0.2,3.1-0.6c0.8-0.4,1.7-0.9,2.4-1.5l-0.6-1c-0.4,0.3-0.8,0.6-1.1,0.8c-0.4,0.2-0.8,0.4-1.3,0.4
			c-0.6,0-1.1-0.2-1.3-0.6c-0.2-0.5-0.4-1.1-0.4-2V44.1c0-1.9-0.2-3.5-0.5-4.8c-0.3-1.3-0.9-2.4-1.9-3.3c-0.8-0.8-1.8-1.4-3-1.7
			s-2.7-0.5-4.3-0.5c-1.7,0-3.3,0.2-4.8,0.6c-1.4,0.5-2.6,0.9-3.5,1.5c-0.8,0.6-1.5,1.2-2.1,1.8c-0.5,0.7-0.8,1.5-0.8,2.5
			c0,0,0.2,2,2.4,1.3c2.1-0.7-0.2-3.9,2.1-5.3c-0.8,0.5,1.1-0.7,2.2-1c1.1-0.3,1.9-0.4,2.8-0.4c1.1,0,1.9,0.2,2.7,0.5
			c0.8,0.4,1.4,0.9,1.7,1.7c0.5,0.8,0.7,1.9,0.7,3.3v3.9c0,0.1,0,0.2,0,0.2v2.1V58c-0.8,1.4-1.7,2.3-2.7,2.8c-1,0.5-1.9,0.8-2.9,0.8
			c-1.2,0-2.2-0.4-3-1.2c-0.8-0.8-1.2-2.1-1.2-3.8c0-1.7,0.4-3.1,1.2-4.1c0.8-1,1.7-1.7,2.9-2.4s2.2-1.1,3.3-1.6
			c0.3-0.2,0.6-0.3,0.9-0.5v-1.4c-0.7,0.5-1.6,0.9-2.6,1.3c-1.2,0.5-2.5,0.9-3.9,1.4s-2.7,1.1-3.8,1.7c-1.2,0.7-2.2,1.5-3,2.6
			c-0.8,1.1-1.1,2.4-1.1,4c0,2,0.5,3.6,1.7,4.9C33.9,63.9,35.7,64.5,38.2,64.5z"/>
		<path id="XMLID_366_" class="st0" d="M173.4,62.9c-1.7-0.1-3-0.4-4-0.9s-1.4-1.4-1.4-2.8c-0.1-1.3,0.5-3.2,1.4-5.6l2.2-5.7
			l7.1-18.7l6.5,17.5h-11.5l-0.6,1.9h12.5l3.7,9.2c0.8,2.1,0.9,3.4,0.4,4c-0.5,0.6-1.8,1-3.9,1.1v1.2v0.1h15.6v-1.3
			c-0.6,0-1.4-0.3-2.1-0.8c-0.8-0.5-1.4-1.5-2-3l-14.8-37.9h-2.1l-14,36.1c-0.8,1.9-1.6,3.3-2.4,4.1c-0.8,0.8-1.7,1.3-2.5,1.5v1.3
			h11.8V62.9z"/>
		<path id="XMLID_365_" class="st0" d="M217.4,62.9h-0.5c-1.1-0.1-2.1-0.3-2.6-0.8c-0.6-0.5-0.9-1.6-0.9-3.2V22.6v-1.3h-10v1.3h0.4
			c1.4,0.1,2.3,0.5,2.8,1.1c0.5,0.8,0.8,2.1,0.8,3.7V59c0,1.5-0.3,2.6-0.9,3.2c-0.5,0.5-1.4,0.8-2.6,0.8h-0.5v1.3h14.1L217.4,62.9
			L217.4,62.9z"/>
		<path id="XMLID_362_" class="st0" d="M311.5,43.4c0.4-1.7,1.1-3.6,2.1-4.6c1.3-1.4,2.8-2.1,4.4-2.1c1.4,0,2.5,0.2,3.4,1.1
			s1.6,2.4,2.1,4.3c0.5,2,0.7,4.5,0.7,7.5c0,4.7-0.6,8.1-1.7,10.4s-2.7,3-5.2,3.2c-1.3,0.1-2.6-0.2-3.8-0.8
			c-0.7-0.4-0.9-0.5-1.9-1.5V43.4z M304.7,23.5c0.6,0.8,0.8,2.1,0.8,3.6v34.1c0,0.5,0,1.1-0.1,1.6s-0.2,1.1-0.3,1.5l0.9,0.5
			c0.5-0.5,1.1-0.8,1.7-1.2c0.6-0.4,1.2-0.8,1.9-1.1c0.5-0.2,1-0.5,1.4-0.6c0.6,0.6,1.2,1.1,2,1.5c1.6,0.8,3.3,1.3,5,1.3
			c2.2,0,4.3-0.5,6.2-1.7c1.9-1.1,3.4-2.7,4.6-5c1.1-2.3,1.7-5.2,1.7-8.7c0-5-1-8.7-3-11.2s-4.4-3.7-7.4-3.7c-2.4,0-4.4,0.8-6.2,2.3
			c-1.1,0.9-1.9,2.1-2.4,3.6V22.3v-1.2V21h-10v0.2v1.1C303.1,22.4,304.1,22.8,304.7,23.5z"/>
		<path id="XMLID_361_" class="st0" d="M222.9,64.2c0.2-0.9,0.4-1.5,0.7-1.8c0.3-0.4,0.7-0.4,1.1-0.2s0.8,0.5,1.1,0.7
			s0.8,0.5,1.2,0.7c0.7,0.3,1.4,0.5,2.2,0.7c0.8,0.2,1.7,0.2,2.6,0.2c1.8,0,3.5-0.3,5-0.9s2.7-1.5,3.7-2.8c0.9-1.2,1.4-2.7,1.4-4.5
			c0-2.4-0.8-4.3-2.2-5.7c-1.4-1.4-3.2-2.9-5.3-4.3c-1.3-0.8-2.4-1.6-3.5-2.4c-1.1-0.8-2-1.5-2.7-2.4c-0.7-0.8-1.1-1.8-1.1-3
			c0-1.4,0.5-2.4,1.3-3.1c0.8-0.7,1.9-1.1,3.1-1.1c1.7,0,3,0.5,4.1,1.3c1.1,0.9,1.8,2,2.4,3.3c0.5,1.4,0.9,2.7,1.1,4.1h1.3h0.2v-9.5
			c0-0.1,0-0.2,0-0.2h-1.3c-0.3,2.3-1.1,3-2.4,2c-0.5-0.4-1.3-0.8-2.4-1.3c-1.1-0.5-2.4-0.7-4-0.7c-1.6,0-3,0.3-4.4,0.8
			s-2.5,1.4-3.3,2.5c-0.8,1.1-1.2,2.5-1.2,4.3c0,1.6,0.4,2.9,1.1,4c0.8,1.1,1.7,2.1,2.8,3c1.1,0.9,2.4,1.8,3.7,2.7
			c1.8,1.2,3.3,2.4,4.5,3.5c1.1,1.1,1.7,2.5,1.7,4.2c0,1.8-0.5,3.1-1.5,3.9c-1.1,0.8-2.1,1.1-3.2,1.1c-1.8,0-3.3-0.5-4.3-1.4
			c-1.1-0.9-1.8-2.1-2.4-3.7c-0.5-1.6-0.9-3.5-1.2-5.5H223h-1.2v11.5L222.9,64.2z"/>
		<path id="XMLID_360_" class="st0" d="M79,33.8c-1.8,0-3.6,0.5-5.2,1.5c-1.7,1-3,2.7-4,4.9v-5.5v-0.2H59.4v1.3h0.2
			c1.4,0,2.5,0.5,3,1.2c0.6,0.8,0.8,2.1,0.8,3.8v18c0,1.6-0.3,2.7-0.9,3.3C62,62.8,60.9,63,59.4,63h-0.2v1.3h14.1V63h-0.1
			c-1.2,0-2.1-0.3-2.7-0.8c-0.5-0.6-0.8-1.7-0.8-3.3V45c0-1.7,0.3-3.3,0.9-4.6s1.4-2.5,2.5-3.3c1.1-0.8,2.3-1.2,3.6-1.2
			c1.2,0,2.1,0.3,2.6,0.8s0.9,1.3,1.1,2.2c0.2,0.9,0.2,1.9,0.2,3v16.9c0,1.6-0.2,2.7-0.8,3.3S78.4,63,77.1,63h-0.2v1.3H91V63h-0.2
			c-1.4,0-2.5-0.3-3.1-0.8c-0.6-0.6-0.9-1.7-0.9-3.3V45.1c0-2.6,0.7-4.8,2.1-6.5c1.4-1.7,3-2.7,5-2.7c1.2,0,2.1,0.3,2.7,0.8
			c0.6,0.5,0.9,1.3,1.1,2.2c0.2,0.9,0.2,1.9,0.2,3v16.9c0,1.6-0.2,2.7-0.8,3.3c-0.5,0.6-1.4,0.8-2.7,0.8v1.3h14.1V63h-0.2
			c-1.5,0-2.6-0.3-3.2-0.8c-0.6-0.6-0.9-1.7-0.9-3.3V43.5c0-1.8-0.2-3.3-0.4-4.6c-0.3-1.2-0.8-2.2-1.4-2.9c-0.6-0.7-1.4-1.2-2.4-1.6
			s-2.2-0.6-3.7-0.6c-1.9,0-3.7,0.5-5.4,1.4c-1.7,0.9-3.1,2.6-4.1,5.1c-0.1-0.5-0.2-0.9-0.2-1.3c-0.3-1.2-0.8-2.2-1.4-2.9
			c-0.6-0.7-1.4-1.2-2.4-1.6C81.7,34,80.5,33.8,79,33.8z"/>
		<path id="XMLID_359_" class="st0" d="M153.3,62.9h-0.6c-1.1-0.1-2.1-0.3-2.6-0.8c-0.6-0.5-0.9-1.6-0.9-3.2V22.6v-1.3h-10v1.3h0.4
			c1.4,0.1,2.3,0.5,2.8,1.1c0.5,0.8,0.8,2.1,0.8,3.7V59c0,1.5-0.3,2.6-0.9,3.2c-0.5,0.5-1.4,0.8-2.6,0.8h-0.5v1.3h14.1L153.3,62.9
			L153.3,62.9z"/>
		<path id="XMLID_358_" class="st0" d="M26.3,22.6c0.7-0.3,1.7-0.5,3.1-0.5v-1.4h-0.1v-0.1H12.5v1.4h0.1V22c1.4,0.1,2.4,0.2,3.1,0.5
			c0.7,0.3,1.1,0.8,1.4,1.7s0.3,2.1,0.3,3.8v60.6c0,3.9-0.3,7-0.9,9.2c-0.6,2.3-1.5,3.9-2.7,4.8c-1.2,1-2.7,1.5-4.5,1.6v1.4
			c4,0,7.1-1.1,9.5-3.3c2.4-2.2,4-4.9,4.7-8.2c0.4-1.6,0.6-3.4,0.8-5.5c0.2-2.1,0.2-4.3,0.2-6.5c0-2.3,0-4.3,0-6.2V28.1
			c0-1.7,0.2-3,0.4-3.8C25.1,23.4,25.6,22.9,26.3,22.6z"/>
		<path id="XMLID_357_" class="st0" d="M13.9,73.3c0-0.4,0.1-0.8,0.2-1.1h-12c-0.3,0-0.5,0.3-0.5,0.6s0.2,0.6,0.5,0.6L13.9,73.3
			L13.9,73.3z"/>
		<path id="XMLID_356_" class="st0" d="M333.9,72.2H27.5c0,0.5-0.1,0.8-0.2,1.2H334c0.3,0,0.6-0.3,0.6-0.6
			C334.6,72.4,334.3,72.2,333.9,72.2z"/>
		<path id="XMLID_353_" class="st0" d="M46.6,4.1c0-1.2,0.2-2,0.5-2.4c0.2-0.3,0.8-0.5,1.4-0.5H50c2.8,0.2,4.9,1.1,6.1,2.8
			c1.4,1.9,2,4.8,2,8.6c0,2.5-0.3,4.6-0.8,6.4c-0.5,1.7-1.4,3-2.7,3.9c-1.2,0.8-2.8,1.3-4.9,1.4h-1c-0.8-0.1-1.3-0.2-1.6-0.5
			c-0.3-0.4-0.5-1.2-0.5-2.4L46.6,4.1L46.6,4.1z M47.6,24.9c0.8,0,1.4,0.1,1.8,0.1c0.2,0,0.5,0,0.8-0.1h0.4c2.2-0.2,4.2-0.6,5.9-1.5
			c1.9-1.1,3.3-2.5,4.4-4.3c1-1.9,1.5-4,1.5-6.5c0-3.8-1.1-6.8-3.1-8.8c-2.1-2.1-5.2-3.2-9.5-3.2c-0.6,0-1.4,0-2.5,0
			c-0.2,0-0.2,0-0.4,0h-5.9c-0.4,0-0.8,0-1-0.1v0.7c0.8,0,1.4,0.1,1.7,0.2s0.7,0.5,0.8,0.8c0.2,0.5,0.2,1.1,0.2,2v17.1
			c0,0.8-0.1,1.4-0.2,1.8c-0.2,0.4-0.4,0.7-0.8,0.8c-0.4,0.2-1,0.2-1.7,0.3v0.7c0.2,0,0.4,0,0.6-0.1L47.6,24.9L47.6,24.9z"/>
		<path id="XMLID_352_" class="st0" d="M81.1,24.9c0.5,0,0.9-0.2,1.2-0.5c0.3-0.3,0.5-0.7,0.5-1.1s-0.2-0.9-0.5-1.2
			c-0.3-0.3-0.8-0.5-1.2-0.5s-0.9,0.2-1.2,0.5s-0.5,0.7-0.5,1.2c0,0.5,0.2,0.8,0.5,1.1S80.6,24.9,81.1,24.9z"/>
		<path id="XMLID_351_" class="st0" d="M65,24.9h9.7v-0.1v-0.8c-1.1,0-2-0.2-2.6-0.5c-0.6-0.4-0.9-1.1-0.9-2.3v-7.9
			c0-0.8,0.2-1.6,0.5-2.5s0.8-1.7,1.5-2.3c0.6-0.6,1.4-1,2.2-1c0.3,0,0.5,0,0.8,0.1c0,0,0.5,0.2,0.7,0.8c0.3,0.8-0.4,0.9,0.1,2
			c0.3,0.8,1.1,0.9,1.6,0.6c0.5-0.4,0.6-0.8,0.6-1.5c0-0.5-0.2-1.1-0.5-1.4c-0.2-0.5-0.6-0.8-1.1-1.1s-1.1-0.5-1.7-0.5
			c-0.8,0-1.5,0.2-2.1,0.6c-0.6,0.4-1.2,0.9-1.7,1.5c-0.5,0.6-0.8,1.3-1.1,1.9V7.8V7.4V7.1H65v0.1v0.8c1,0,1.6,0.2,2,0.8
			c0.4,0.5,0.5,1.3,0.5,2.3v10.8c0,1-0.2,1.6-0.6,2c-0.4,0.4-1,0.5-1.9,0.5L65,24.9C65,24.8,65,24.8,65,24.9z"/>
		<path id="XMLID_350_" class="st0" d="M149.6,97.9V86.7h1.7l3.7,5.9l3.7-5.9h1.6v11.2h-1.7v-4.6c0-0.7,0-1.4,0.1-2
			c0.1-0.6,0.1-1.1,0.2-1.7l-3.3,5.1h-1.1l-3.2-5.1c0.1,0.5,0.1,1.1,0.2,1.7c0,0.6,0.1,1.3,0.1,2v4.6L149.6,97.9L149.6,97.9z"/>
		<polygon id="XMLID_349_" class="st0" points="163.4,97.9 163.4,86.7 170.4,86.7 170.4,88.4 165.1,88.4 165.1,91.3 169.5,91.3 
			169.5,93 165.1,93 165.1,96.3 170.4,96.3 170.4,97.9 163.4,97.9 		"/>
		<path id="XMLID_346_" class="st0" d="M177.5,88.4h-2.6v7.8h2.6c1.1,0,2-0.4,2.7-1.1c0.6-0.7,0.9-1.7,0.9-2.9
			c0-1.2-0.3-2.2-0.9-2.9C179.5,88.7,178.7,88.4,177.5,88.4z M173.2,97.9V86.7h4.4c1.1,0,2,0.2,2.7,0.7c0.8,0.5,1.4,1.1,1.8,2
			s0.7,1.8,0.7,2.9c0,1.1-0.2,2.1-0.6,3c-0.5,0.8-1.1,1.5-1.8,2s-1.7,0.7-2.8,0.7H173.2z"/>
		<polygon id="XMLID_345_" class="st0" points="184.5,97.9 184.5,96.3 186.3,96.3 186.3,88.3 184.5,88.3 184.5,86.7 189.8,86.7 
			189.8,88.3 188,88.3 188,96.3 189.8,96.3 189.8,97.9 		"/>
		<path id="XMLID_344_" class="st0" d="M196.8,98c-1.1,0-2-0.2-2.7-0.8c-0.8-0.5-1.4-1.1-1.9-2.1c-0.5-0.8-0.7-1.8-0.7-3
			c0-0.8,0.2-1.5,0.5-2.2c0.3-0.7,0.7-1.3,1.1-1.8c0.5-0.5,1.1-0.9,1.7-1.2c0.7-0.3,1.4-0.5,2.1-0.5c0.5,0,1.1,0.1,1.6,0.2
			s1,0.4,1.4,0.7c0.5,0.3,0.8,0.6,1.1,1l-1.1,1.2c-0.9-0.9-1.9-1.4-2.9-1.4c-0.7,0-1.3,0.2-1.9,0.5c-0.5,0.3-1,0.8-1.4,1.4
			c-0.3,0.6-0.5,1.3-0.5,2c0,0.8,0.2,1.5,0.5,2.1c0.3,0.6,0.8,1.1,1.4,1.4c0.6,0.3,1.2,0.5,2.1,0.5c0.5,0,1.1-0.1,1.5-0.3
			s0.9-0.5,1.3-0.9l0.8,1.4c-0.2,0.3-0.6,0.5-1,0.8c-0.5,0.2-0.9,0.4-1.4,0.5C197.9,97.9,197.4,98,196.8,98z"/>
		<path id="XMLID_341_" class="st0" d="M206.3,91.2l-0.8,2.2h3.4l-0.9-2.3c0-0.1-0.1-0.2-0.2-0.5s-0.2-0.6-0.3-1
			c-0.2-0.4-0.2-0.7-0.3-1c-0.1,0.3-0.2,0.6-0.3,0.9c-0.1,0.3-0.2,0.6-0.3,0.9C206.4,90.7,206.3,91,206.3,91.2z M202,97.9l4.3-11.2
			h1.7l4.3,11.2h-1.8l-1.1-2.8h-4.7l-1.1,2.8H202z"/>
		<polygon id="XMLID_340_" class="st0" points="214.3,97.9 214.3,86.7 216.1,86.7 216.1,96.2 221.3,96.2 221.3,97.9 		"/>
		<path id="XMLID_339_" class="st0" d="M232.9,98c-1.1,0-2-0.2-2.7-0.8c-0.8-0.5-1.4-1.1-1.9-2.1c-0.5-0.8-0.7-1.8-0.7-3
			c0-0.8,0.2-1.5,0.5-2.2s0.7-1.3,1.1-1.8c0.5-0.5,1.1-0.9,1.7-1.2c0.7-0.3,1.4-0.5,2.1-0.5c0.5,0,1.1,0.1,1.6,0.2
			c0.5,0.2,1,0.4,1.4,0.7c0.5,0.3,0.8,0.6,1.1,1l-1.1,1.2c-0.9-0.9-1.9-1.4-2.9-1.4c-0.7,0-1.3,0.2-1.9,0.5c-0.5,0.3-1,0.8-1.4,1.4
			c-0.3,0.6-0.5,1.3-0.5,2c0,0.8,0.2,1.5,0.5,2.1c0.3,0.6,0.8,1.1,1.4,1.4c0.6,0.3,1.2,0.5,2.1,0.5c0.5,0,1.1-0.1,1.5-0.3
			s0.9-0.5,1.3-0.9l0.8,1.4c-0.2,0.3-0.6,0.5-1,0.8c-0.5,0.2-0.9,0.4-1.4,0.5C233.9,97.9,233.4,98,232.9,98z"/>
		<path id="XMLID_336_" class="st0" d="M243.9,96.4c0.7,0,1.4-0.2,1.9-0.5s1-0.8,1.3-1.4c0.3-0.6,0.5-1.3,0.5-2.1
			c0-0.8-0.2-1.4-0.5-2.1s-0.8-1.1-1.3-1.4c-0.5-0.4-1.2-0.5-1.9-0.5c-0.8,0-1.4,0.2-1.9,0.5c-0.5,0.4-1,0.8-1.3,1.4
			c-0.3,0.6-0.5,1.3-0.5,2.1c0,0.8,0.2,1.5,0.5,2.1c0.3,0.6,0.8,1.1,1.3,1.4S243.1,96.4,243.9,96.4z M243.9,98
			c-0.8,0-1.5-0.2-2.2-0.5c-0.7-0.3-1.2-0.7-1.7-1.2s-0.9-1.1-1.1-1.8c-0.3-0.7-0.4-1.4-0.4-2.3c0-0.8,0.2-1.6,0.4-2.3
			c0.3-0.7,0.7-1.3,1.1-1.8c0.5-0.5,1.1-0.9,1.7-1.2c0.7-0.3,1.4-0.5,2.2-0.5s1.5,0.2,2.2,0.5c0.7,0.3,1.2,0.7,1.7,1.2
			c0.5,0.5,0.9,1.1,1.1,1.8c0.3,0.7,0.4,1.4,0.4,2.3c0,0.8-0.2,1.6-0.4,2.3c-0.3,0.7-0.7,1.3-1.1,1.8c-0.5,0.5-1.1,0.9-1.7,1.2
			C245.4,97.9,244.7,98,243.9,98z"/>
		<path id="XMLID_335_" class="st0" d="M251.7,97.9V86.7h1.5l6.5,8.7c-0.1-0.7-0.2-1.4-0.2-2.3s-0.1-1.7-0.1-2.8v-3.6h1.7v11.2h-1.6
			l-6.5-8.5c0.1,0.9,0.2,1.7,0.2,2.1c0.1,0.5,0.1,0.9,0.1,1.1s0,0.5,0,0.6v4.6L251.7,97.9L251.7,97.9z"/>
		<path id="XMLID_334_" class="st0" d="M267.8,98c-1.8,0-3.2-0.8-4.2-2.2l1.2-1.4c0.5,0.8,1,1.3,1.5,1.5s1.1,0.5,1.7,0.5
			s1.1-0.2,1.5-0.4c0.5-0.3,0.6-0.6,0.6-1.1c0-0.5-0.2-0.9-0.6-1.2c-0.4-0.3-1.1-0.5-2-0.8c-2.3-0.5-3.4-1.6-3.4-3.4
			c0-0.6,0.2-1.1,0.5-1.6c0.3-0.5,0.8-0.8,1.4-1.1c0.6-0.3,1.2-0.4,2-0.4c1.7,0,3,0.7,3.8,2l-1.2,1.2c-0.3-0.5-0.7-0.9-1.1-1.2
			c-0.5-0.3-0.9-0.4-1.4-0.4c-0.6,0-1.1,0.2-1.5,0.5c-0.4,0.3-0.6,0.7-0.6,1.1s0.2,0.8,0.5,1.1c0.4,0.3,0.9,0.5,1.7,0.7
			c1.1,0.2,2.1,0.6,2.7,1.2c0.7,0.5,1,1.2,1,2c0,1.1-0.4,1.9-1.1,2.5S269.1,98,267.8,98z"/>
		<path id="XMLID_333_" class="st0" d="M278.7,97.9c-0.8,0-1.6-0.2-2.3-0.5c-0.7-0.4-1.2-0.9-1.6-1.6c-0.4-0.7-0.6-1.4-0.6-2.3v-6.9
			h1.7v6.8c0,0.5,0.2,1.1,0.4,1.4c0.2,0.5,0.6,0.8,1,1.1c0.5,0.2,0.9,0.4,1.4,0.4c0.5,0,1-0.2,1.4-0.4c0.5-0.2,0.8-0.6,1.1-1.1
			c0.2-0.5,0.4-0.9,0.4-1.4v-6.8h1.7v6.9c0,0.8-0.2,1.6-0.6,2.3c-0.4,0.7-0.9,1.2-1.6,1.6S279.6,97.9,278.7,97.9z"/>
		<polygon id="XMLID_332_" class="st0" points="286.1,97.9 286.1,86.7 287.9,86.7 287.9,96.2 293.1,96.2 293.1,97.9 		"/>
		<polygon id="XMLID_331_" class="st0" points="296.5,97.9 296.5,88.4 293.4,88.4 293.4,86.7 301.5,86.7 301.5,88.4 298.3,88.4 
			298.3,97.9 		"/>
		<path id="XMLID_328_" class="st0" d="M305.9,91.2l-0.8,2.2h3.4l-0.9-2.3c0-0.1-0.1-0.2-0.2-0.5c-0.2-0.3-0.2-0.6-0.3-1
			c-0.2-0.4-0.2-0.7-0.3-1c-0.1,0.3-0.2,0.6-0.3,0.9c-0.1,0.3-0.2,0.6-0.3,0.9S306,91,305.9,91.2z M301.6,97.9l4.3-11.2h1.7
			l4.3,11.2h-1.8l-1.1-2.8h-4.7l-1.1,2.8H301.6z"/>
		<path id="XMLID_327_" class="st0" d="M313.9,97.9V86.7h1.5l6.5,8.7c-0.1-0.7-0.2-1.4-0.2-2.3s-0.1-1.7-0.1-2.8v-3.6h1.7v11.2h-1.6
			l-6.5-8.5c0.1,0.9,0.2,1.7,0.2,2.1c0.1,0.5,0.1,0.9,0.1,1.1s0,0.5,0,0.6v4.6L313.9,97.9L313.9,97.9z"/>
		<polygon id="XMLID_326_" class="st0" points="328.8,97.9 328.8,88.4 325.7,88.4 325.7,86.7 333.7,86.7 333.7,88.4 330.5,88.4 
			330.5,97.9 		"/>
	</g>
</g>
</svg>
